####
# Object box.obj
#
# Vertices: 8
# Faces: 12
#
####
vn -1.570796 1.570796 -1.570796
v -0.500000 0.500000 -0.500000
vn 1.570796 -1.570796 -1.570796
v 0.500000 -0.500000 -0.500000
vn -1.570796 -1.570796 -1.570796
v -0.500000 -0.500000 -0.500000
vn 1.570796 1.570796 -1.570796
v 0.500000 0.500000 -0.500000
vn -1.570796 -1.570796 1.570796
v -0.500000 -0.500000 0.500000
vn -1.570796 1.570796 1.570796
v -0.500000 0.500000 0.500000
vn 1.570796 -1.570796 1.570796
v 0.500000 -0.500000 0.500000
vn 1.570796 1.570796 1.570796
v 0.500000 0.500000 0.500000
# 8 vertices, 0 vertices normals

f 1//1 2//2 3//3
f 2//2 1//1 4//4
f 5//5 1//1 3//3
f 1//1 5//5 6//6
f 2//2 5//5 3//3
f 5//5 2//2 7//7
f 6//6 7//7 8//8
f 7//7 6//6 5//5
f 4//4 6//6 8//8
f 6//6 4//4 1//1
f 7//7 4//4 8//8
f 4//4 7//7 2//2
# 12 faces, 0 coords texture

# End of File
